<svg xmlns="http://www.w3.org/2000/svg" width="287" height="64" viewBox="0 0 287 64" fill="none" stroke-linecap="round" xmlns:c2pa="http://c2pa.org/manifest"><metadata><c2pa:manifest>AAAWgmp1bWIAAAAeanVtZGMycGEAEQAQgAAAqgA4m3EDYzJwYQAAABZcanVtYgAAAEdqdW1kYzJtYQARABCAAACqADibcQN1cm46YzJwYTo1Y2JkZmFiMC00YWI1LTQ0ODMtODk1OC1iOTkzOGYyNDNiNjcAAAADl2p1bWIAAAApanVtZGMyYXMAEQAQgAAAqgA4m3EDYzJwYS5hc3NlcnRpb25zAAAAALxqdW1iAAAARGp1bWRjYm9yABEAEIAAAKoAOJtxE2MycGEuaW5ncmVkaWVudC52MwAAAAAYYzJzaDWDJ9KIxWipIC7lJsgaPWwAAABwY2JvcqNpZGM6Zm9ybWF0bWltYWdlL3N2Zyt4bWxqaW5zdGFuY2VJRHgseG1wOmlpZDo5MDliNDUyMC1kMjRlLTQ3MmEtOWUyOS1mMWRkNDAwNTc1MzlscmVsYXRpb25zaGlwaHBhcmVudE9mAAAB4mp1bWIAAABBanVtZGNib3IAEQAQgAAAqgA4m3ETYzJwYS5hY3Rpb25zLnYyAAAAABhjMnNo5Su+xyqvUUS3mXqRB2AafAAAAZljYm9yomdhY3Rpb25zgqJmYWN0aW9ua2MycGEub3BlbmVkanBhcmFtZXRlcnOha2luZ3JlZGllbnRzgaJjdXJseC1zZWxmI2p1bWJmPWMycGEuYXNzZXJ0aW9ucy9jMnBhLmluZ3JlZGllbnQudjNkaGFzaFggG5VRgK2FIXYdSTTU5e9HzQWgbKdvvdB6y3I/34xtTYGkZmFjdGlvbngdY29tLmFudGhyb3BpYy5jbGF1ZGUucHJvdmlkZWRqcGFyYW1ldGVyc6F4H2NvbS5hbnRocm9waWMub3JpZ2luLWNvbmZpZGVuY2VndW5rbm93bmtkZXNjcmlwdGlvbnhmQ2xhdWRlIHByb3ZpZGVkIHRoaXMgZmlsZSBhdCB0aGUgcmVxdWVzdCBvZiBhIHVzZXIgYW5kIG1heSBoYXZlIGNyZWF0ZWQgb3IgbW9kaWZpZWQgdGhlIGZpbGUgY29udGVudHMubXNvZnR3YXJlQWdlbnShZG5hbWVmQ2xhdWRlcmFsbEFjdGlvbnNJbmNsdWRlZPUAAADIanVtYgAAAEBqdW1kY2JvcgARABCAAACqADibcRNjMnBhLmhhc2guZGF0YQAAAAAYYzJzaBE1SIyY4tSed1UvcjbP7WcAAACAY2JvcqVjYWxnZnNoYTI1NmNwYWRNAAAAAAAAAAAAAAAAAGRoYXNoWCBBPaTo2MozHEfbQB7JRCBBfRBorrOcAYUkQmEwaA4fjGRuYW1lbmp1bWJmIG1hbmlmZXN0amV4Y2x1c2lvbnOBomVzdGFydBi3Zmxlbmd0aBkeBAAAAj5qdW1iAAAAJ2p1bWRjMmNsABEAEIAAAKoAOJtxA2MycGEuY2xhaW0udjIAAAACD2Nib3KlY2FsZ2ZzaGEyNTZpc2lnbmF0dXJleE1zZWxmI2p1bWJmPS9jMnBhL3VybjpjMnBhOjVjYmRmYWIwLTRhYjUtNDQ4My04OTU4LWI5OTM4ZjI0M2I2Ny9jMnBhLnNpZ25hdHVyZWppbnN0YW5jZUlEeCx4bXA6aWlkOjgyZmViMjI4LTUzOWYtNGRlYi1iYWFiLWVkYTgwNTMwYzE2MnJjcmVhdGVkX2Fzc2VydGlvbnODomN1cmx4LXNlbGYjanVtYmY9YzJwYS5hc3NlcnRpb25zL2MycGEuaW5ncmVkaWVudC52M2RoYXNoWCAblVGArYUhdh1JNNTl70fNBaBsp2+90HrLcj/fjG1NgaJjdXJseCpzZWxmI2p1bWJmPWMycGEuYXNzZXJ0aW9ucy9jMnBhLmFjdGlvbnMudjJkaGFzaFggVj1aCYj/2qpaFVl+BrcoZY/DpQVLdeodWg6ThFHtQ06iY3VybHgpc2VsZiNqdW1iZj1jMnBhLmFzc2VydGlvbnMvYzJwYS5oYXNoLmRhdGFkaGFzaFggDtaY5N9iM6ZCTEhRpql1wGSh8VDeSPyZ0sh3DaOZC3h0Y2xhaW1fZ2VuZXJhdG9yX2luZm+jZG5hbWVvQW50aHJvcGljIEZpbGVzZ3ZlcnNpb25lMS4wLjBrc3BlY1ZlcnNpb25lMi40LjAAABA4anVtYgAAAChqdW1kYzJjcwARABCAAACqADibcQNjMnBhLnNpZ25hdHVyZQAAABAIY2JvctKEWQISogEmGCFZAgowggIGMIIBjaADAgECAhRA5aAK7sI50L64g/oGQgU9Z1UTADAKBggqhkjOPQQDAzBJMRcwFQYDVQQKEw5BbnRocm9waWMsIFBCQzEuMCwGA1UEAxMlQW50aHJvcGljIENvbnRlbnQgQ3JlZGVudGlhbHMgUm9vdCBDQTAeFw0yNjA4MDcxODQzNTZaFw0yODA4MDYxOTQzNTZaMEQxFzAVBgNVBAoTDkFudGhyb3BpYywgUEJDMSkwJwYDVQQDEyBBbnRocm9waWMgQ2xhdWRlIENvbnRlbnQgU2lnbmluZzBZMBMGByqGSM49AgEGCCqGSM49AwEHA0IABJh6CmvLUBgFFNU0vUKlOVtE6djd17L5SuwX0LemFisBM3dkd/3cyjxFA3Qo5S46fX0/ihY0VZ7mfb9KF703t5OjWDBWMA4GA1UdDwEB/wQEAwIHgDAVBgNVHSUEDjAMBgorBgEEAYPoXgIBMAwGA1UdEwEB/wQCMAAwHwYDVR0jBBgwFoAUzlHiBIFOZFsj+OPEz5o+nMHXXMIwCgYIKoZIzj0EAwMDZwAwZAIwMXMdFJ4BetLLVY7ORuE9noqbbAZOZn/aArXyTwFAZfKrPzxF2vPoJNf1+UCdg1XGAjBwX1zd9WGqYkqmL5SFqw1QySjr1zJfpJM9+1rdDwSPLMOPOjKuiXjoU/pUUeG9RwmhY3BhZFkNngAAAAAAAAAAAAAAAAAAAAAAAAAAAAAAAAAAAAAAAAAAAAAAAAAAAAAAAAAAAAAAAAAAAAAAAAAAAAAAAAAAAAAAAAAAAAAAAAAAAAAAAAAAAAAAAAAAAAAAAAAAAAAAAAAAAAAAAAAAAAAAAAAAAAAAAAAAAAAAAAAAAAAAAAAAAAAAAAAAAAAAAAAAAAAAAAAAAAAAAAAAAAAAAAAAAAAAAAAAAAAAAAAAAAAAAAAAAAAAAAAAAAAAAAAAAAAAAAAAAAAAAAAAAAAAAAAAAAAAAAAAAAAAAAAAAAAAAAAAAAAAAAAAAAAAAAAAAAAAAAAAAAAAAAAAAAAAAAAAAAAAAAAAAAAAAAAAAAAAAAAAAAAAAAAAAAAAAAAAAAAAAAAAAAAAAAAAAAAAAAAAAAAAAAAAAAAAAAAAAAAAAAAAAAAAAAAAAAAAAAAAAAAAAAAAAAAAAAAAAAAAAAAAAAAAAAAAAAAAAAAAAAAAAAAAAAAAAAAAAAAAAAAAAAAAAAAAAAAAAAAAAAAAAAAAAAAAAAAAAAAAAAAAAAAAAAAAAAAAAAAAAAAAAAAAAAAAAAAAAAAAAAAAAAAAAAAAAAAAAAAAAAAAAAAAAAAAAAAAAAAAAAAAAAAAAAAAAAAAAAAAAAAAAAAAAAAAAAAAAAAAAAAAAAAAAAAAAAAAAAAAAAAAAAAAAAAAAAAAAAAAAAAAAAAAAAAAAAAAAAAAAAAAAAAAAAAAAAAAAAAAAAAAAAAAAAAAAAAAAAAAAAAAAAAAAAAAAAAAAAAAAAAAAAAAAAAAAAAAAAAAAAAAAAAAAAAAAAAAAAAAAAAAAAAAAAAAAAAAAAAAAAAAAAAAAAAAAAAAAAAAAAAAAAAAAAAAAAAAAAAAAAAAAAAAAAAAAAAAAAAAAAAAAAAAAAAAAAAAAAAAAAAAAAAAAAAAAAAAAAAAAAAAAAAAAAAAAAAAAAAAAAAAAAAAAAAAAAAAAAAAAAAAAAAAAAAAAAAAAAAAAAAAAAAAAAAAAAAAAAAAAAAAAAAAAAAAAAAAAAAAAAAAAAAAAAAAAAAAAAAAAAAAAAAAAAAAAAAAAAAAAAAAAAAAAAAAAAAAAAAAAAAAAAAAAAAAAAAAAAAAAAAAAAAAAAAAAAAAAAAAAAAAAAAAAAAAAAAAAAAAAAAAAAAAAAAAAAAAAAAAAAAAAAAAAAAAAAAAAAAAAAAAAAAAAAAAAAAAAAAAAAAAAAAAAAAAAAAAAAAAAAAAAAAAAAAAAAAAAAAAAAAAAAAAAAAAAAAAAAAAAAAAAAAAAAAAAAAAAAAAAAAAAAAAAAAAAAAAAAAAAAAAAAAAAAAAAAAAAAAAAAAAAAAAAAAAAAAAAAAAAAAAAAAAAAAAAAAAAAAAAAAAAAAAAAAAAAAAAAAAAAAAAAAAAAAAAAAAAAAAAAAAAAAAAAAAAAAAAAAAAAAAAAAAAAAAAAAAAAAAAAAAAAAAAAAAAAAAAAAAAAAAAAAAAAAAAAAAAAAAAAAAAAAAAAAAAAAAAAAAAAAAAAAAAAAAAAAAAAAAAAAAAAAAAAAAAAAAAAAAAAAAAAAAAAAAAAAAAAAAAAAAAAAAAAAAAAAAAAAAAAAAAAAAAAAAAAAAAAAAAAAAAAAAAAAAAAAAAAAAAAAAAAAAAAAAAAAAAAAAAAAAAAAAAAAAAAAAAAAAAAAAAAAAAAAAAAAAAAAAAAAAAAAAAAAAAAAAAAAAAAAAAAAAAAAAAAAAAAAAAAAAAAAAAAAAAAAAAAAAAAAAAAAAAAAAAAAAAAAAAAAAAAAAAAAAAAAAAAAAAAAAAAAAAAAAAAAAAAAAAAAAAAAAAAAAAAAAAAAAAAAAAAAAAAAAAAAAAAAAAAAAAAAAAAAAAAAAAAAAAAAAAAAAAAAAAAAAAAAAAAAAAAAAAAAAAAAAAAAAAAAAAAAAAAAAAAAAAAAAAAAAAAAAAAAAAAAAAAAAAAAAAAAAAAAAAAAAAAAAAAAAAAAAAAAAAAAAAAAAAAAAAAAAAAAAAAAAAAAAAAAAAAAAAAAAAAAAAAAAAAAAAAAAAAAAAAAAAAAAAAAAAAAAAAAAAAAAAAAAAAAAAAAAAAAAAAAAAAAAAAAAAAAAAAAAAAAAAAAAAAAAAAAAAAAAAAAAAAAAAAAAAAAAAAAAAAAAAAAAAAAAAAAAAAAAAAAAAAAAAAAAAAAAAAAAAAAAAAAAAAAAAAAAAAAAAAAAAAAAAAAAAAAAAAAAAAAAAAAAAAAAAAAAAAAAAAAAAAAAAAAAAAAAAAAAAAAAAAAAAAAAAAAAAAAAAAAAAAAAAAAAAAAAAAAAAAAAAAAAAAAAAAAAAAAAAAAAAAAAAAAAAAAAAAAAAAAAAAAAAAAAAAAAAAAAAAAAAAAAAAAAAAAAAAAAAAAAAAAAAAAAAAAAAAAAAAAAAAAAAAAAAAAAAAAAAAAAAAAAAAAAAAAAAAAAAAAAAAAAAAAAAAAAAAAAAAAAAAAAAAAAAAAAAAAAAAAAAAAAAAAAAAAAAAAAAAAAAAAAAAAAAAAAAAAAAAAAAAAAAAAAAAAAAAAAAAAAAAAAAAAAAAAAAAAAAAAAAAAAAAAAAAAAAAAAAAAAAAAAAAAAAAAAAAAAAAAAAAAAAAAAAAAAAAAAAAAAAAAAAAAAAAAAAAAAAAAAAAAAAAAAAAAAAAAAAAAAAAAAAAAAAAAAAAAAAAAAAAAAAAAAAAAAAAAAAAAAAAAAAAAAAAAAAAAAAAAAAAAAAAAAAAAAAAAAAAAAAAAAAAAAAAAAAAAAAAAAAAAAAAAAAAAAAAAAAAAAAAAAAAAAAAAAAAAAAAAAAAAAAAAAAAAAAAAAAAAAAAAAAAAAAAAAAAAAAAAAAAAAAAAAAAAAAAAAAAAAAAAAAAAAAAAAAAAAAAAAAAAAAAAAAAAAAAAAAAAAAAAAAAAAAAAAAAAAAAAAAAAAAAAAAAAAAAAAAAAAAAAAAAAAAAAAAAAAAAAAAAAAAAAAAAAAAAAAAAAAAAAAAAAAAAAAAAAAAAAAAAAAAAAAAAAAAAAAAAAAAAAAAAAAAAAAAAAAAAAAAAAAAAAAAAAAAAAAAAAAAAAAAAAAAAAAAAAAAAAAAAAAAAAAAAAAAAAAAAAAAAAAAAAAAAAAAAAAAAAAAAAAAAAAAAAAAAAAAAAAAAAAAAAAAAAAAAAAAAAAAAAAAAAAAAAAAAAAAAAAAAAAAAAAAAAAAAAAAAAAAAAAAAAAAAAAAAAAAAAAAAAAAAAAAAAAAAAAAAAAAAAAAAAAAAAAAAAAAAAAAAAAAAAAAAAAAAAAAAAAAAAAAAAAAAAAAAAAAAAAAAAAAAAAAAAAAAAAAAAAAAAAAAAAAAAAAAAAAAAAAAAAAAAAAAAAAAAAAAAAAAAAAAAAAAAAAAAAAAAAAAAAAAAAAAAAAAAAAAAAAAAAAAAAAAAAAAAAAAAAAAAAAAAAAAAAAAAAAAAAAAAAAAAAAAAAAAAAAAAAAAAAAAAAAAAAAAAAAAAAAAAAAAAAAAAAAAAAAAAAAAAAAAAAAAAAAAAAAAAAAAAAAAAAAAAAAAAAAAAAAAAAAAAAAAAAAAAAAAAAAAAAAAAAAAAAAAAAAAAAAAAAAAAAAAAAAAAAAAAAAAAAAAAAAAAAAAAAAAAAAAAAAAAAAAAAAAAAAAAAAAAAAAAAAAAAAAAAAAAAAAAAAAAAAAAAAAAAAAAAAAAAAAAAAAAAAAAAAAAAAAAAAAAAAAAAAAAAAAAAAAAAAAAAAAAAAAAAAAAAAAAAAAAAAAAAAAAAAAAAAAAAAAAAAAAAAAAAAAAAAAAAAAAAAAAAAAAAAAAAAAAAAAAAAAAAAAAAAAAAAAAAAAAAAAAAAAAAAAAAAAAAAAAAAAAAAAAAAAAAAAAAAAAAAAAAAAAAAAAAAAAAAAAAAAAAAAAAAAAAAAAAAAAAAAAAAAAAAAAAAAAAAAAAAAAAAAAAAAAAAAAAAAAAAAAAAAAAAAAAAAAAAAAAAAAAAAAAAAAAAAAAAAAAAAAAAAAAAAAAAAAAAAAAAAAAAAAAAAAAAAAAAAAAAAAAAAAAAAAAAAAAAAAAAAAAAAAAAAAAAAAAAAAAAAAAAAAAAAAAAAAAAAAAAAAAAAAAAAAAAAAAAAAAAAAAAAAAAAAAAAAAAAAAAAAAAAAAAAAAAAAAAAAAAAAAAAAAAAAAAAAAAAAAAAAAAAAAAAAAAAAAAAAAAAAAAAAAAAAAAAAAAAAAAAAAAAAAAAAAAAAAAAAAAAAAAAAAAAAAAAAAAAAAAAAAAAAAAAAAAAAAAAAAAAAAAAAAAAAAAAAAAAAAAAAAAAAAAAAAAAAAAAAAAAAAAAAAAAAAAAAAAAAAAAAAAAAAAAAAAAAAAAAAAAAAAAAAAAAAAAAAAAAAAAAAAAAAAAAAAAAAAAAAAAAAAAAAAAAAAAAAAAAAAAAAAAAAAAAAAAAAAAAAAAAAAAAAAAAAAAAAAAAAAAAAAAAAAAAAAAAAAAAAAAAAAAAAAAAAAAAAAAAAAAAAAAAAAAAAAAAAAAAAAAAAAAAAAAAAAAAAAAAAAAAAAAAAAAAAAAAAAAAAAAAAAAAAAAAAAAAAAAAAAAAAAAAAAAAAAAAAAAAAAAAAAAAAAAAAAAAAAAAAAAAAAAAAAAAAAAAAAAAAAPZYQObkBDpbi209IeU1tZsymYZ/VOj2880C+54rXsjlEzyO74fNd6xGICiQ/iPn0J+fvlpCB8pm1QwOtVNXT5SWRsk=</c2pa:manifest></metadata><path fill="#F5F2EC" d="M4.48 52.00L4.48 12.91L19.32 12.91Q25.03 12.91 28.06 16.16Q31.08 19.41 31.08 25.01Q31.08 30.61 28.06 33.86Q25.03 37.10 19.32 37.10L11.82 37.10L11.82 52.00L4.48 52.00ZM11.82 31.11L17.81 31.11Q20.78 31.11 22.06 29.91Q23.35 28.70 23.35 26.07L23.35 23.94Q23.35 21.31 22.06 20.11Q20.78 18.90 17.81 18.90L11.82 18.90L11.82 31.11ZM48.16 52.67Q44.86 52.67 42.25 51.61Q39.65 50.54 37.83 48.58Q36.01 46.62 35.03 43.82Q34.05 41.02 34.05 37.55Q34.05 34.08 35.03 31.28Q36.01 28.48 37.83 26.52Q39.65 24.56 42.25 23.50Q44.86 22.43 48.16 22.43Q51.41 22.43 54.04 23.50Q56.67 24.56 58.49 26.52Q60.31 28.48 61.29 31.28Q62.27 34.08 62.27 37.55Q62.27 41.02 61.29 43.82Q60.31 46.62 58.49 48.58Q56.67 50.54 54.04 51.61Q51.41 52.67 48.16 52.67ZM48.16 47.18Q51.24 47.18 53.03 45.31Q54.82 43.43 54.82 39.79L54.82 35.31Q54.82 31.67 53.03 29.80Q51.24 27.92 48.16 27.92Q45.08 27.92 43.29 29.80Q41.50 31.67 41.50 35.31L41.50 39.79Q41.50 43.43 43.29 45.31Q45.08 47.18 48.16 47.18ZM81.31 18.62Q78.79 18.62 77.76 17.56Q76.72 16.50 76.72 14.98L76.72 13.64Q76.72 12.13 77.76 11.06Q78.79 10.00 81.31 10.00Q83.83 10.00 84.87 11.06Q85.90 12.13 85.90 13.64L85.90 14.98Q85.90 16.50 84.87 17.56Q83.83 18.62 81.31 18.62ZM68.21 46.34L77.73 46.34L77.73 28.76L68.21 28.76L68.21 23.10L84.90 23.10L84.90 46.34L93.74 46.34L93.74 52.00L68.21 52.00L68.21 46.34ZM98.28 52.00L98.28 23.10L105.45 23.10L105.45 28.20L105.73 28.20Q106.68 25.85 108.67 24.14Q110.66 22.43 114.18 22.43Q118.44 22.43 121.10 25.26Q123.76 28.09 123.76 33.35L123.76 52.00L116.59 52.00L116.59 34.36Q116.59 28.09 111.16 28.09Q110.04 28.09 109.03 28.37Q108.02 28.65 107.21 29.24Q106.40 29.82 105.92 30.66Q105.45 31.50 105.45 32.68L105.45 52.00L98.28 52.00ZM144.20 52.00Q140.06 52.00 138.10 49.82Q136.14 47.63 136.14 44.16L136.14 28.76L127.74 28.76L127.74 23.10L133.45 23.10Q135.18 23.10 135.91 22.40Q136.64 21.70 136.64 19.91L136.64 12.91L143.30 12.91L143.30 23.10L155.06 23.10L155.06 28.76L143.30 28.76L143.30 46.34L155.06 46.34L155.06 52.00L144.20 52.00ZM173.49 52.67Q168.73 52.67 165.26 51.19Q161.78 49.70 159.82 47.18L164.02 43.38Q165.82 45.34 168.14 46.40Q170.46 47.46 173.54 47.46Q176.23 47.46 177.86 46.57Q179.48 45.67 179.48 43.82Q179.48 42.26 178.39 41.70Q177.30 41.14 175.50 40.86L170.86 40.13Q169.06 39.85 167.36 39.32Q165.65 38.78 164.33 37.83Q163.02 36.88 162.23 35.40Q161.45 33.91 161.45 31.78Q161.45 27.25 164.84 24.84Q168.22 22.43 174.16 22.43Q178.36 22.43 181.30 23.61Q184.24 24.78 186.14 26.91L182.39 31.06Q181.16 29.71 179.12 28.68Q177.07 27.64 173.94 27.64Q168.45 27.64 168.45 31.06Q168.45 32.62 169.57 33.21Q170.69 33.80 172.48 34.08L177.07 34.81Q178.92 35.09 180.63 35.62Q182.34 36.15 183.65 37.10Q184.97 38.06 185.75 39.51Q186.54 40.97 186.54 43.10Q186.54 47.58 183.09 50.12Q179.65 52.67 173.49 52.67ZM190.23 52.00L190.23 23.10L196.17 23.10L196.17 27.08L196.50 27.08Q197.18 25.18 198.44 23.80Q199.70 22.43 201.99 22.43Q204.18 22.43 205.46 23.69Q206.75 24.95 207.14 27.25L207.42 27.25Q208.15 25.29 209.58 23.86Q211.01 22.43 213.64 22.43Q216.83 22.43 218.23 24.73Q219.63 27.02 219.63 31.50L219.63 52.00L213.75 52.00L213.75 32.34Q213.75 29.82 213.05 28.82Q212.35 27.81 210.95 27.81Q209.66 27.81 208.80 28.65Q207.93 29.49 207.93 31.22L207.93 52.00L201.99 52.00L201.99 32.34Q201.99 29.82 201.32 28.82Q200.65 27.81 199.25 27.81Q197.90 27.81 197.04 28.65Q196.17 29.49 196.17 31.22L196.17 52.00L190.23 52.00ZM246.96 52.00Q244.33 52.00 242.90 50.68Q241.47 49.37 241.19 47.02L240.91 47.02Q240.13 49.70 237.83 51.19Q235.54 52.67 232.18 52.67Q227.81 52.67 225.23 50.38Q222.66 48.08 222.66 43.99Q222.66 35.26 235.48 35.26L240.58 35.26L240.58 33.35Q240.58 30.61 239.23 29.21Q237.89 27.81 234.86 27.81Q232.12 27.81 230.44 28.87Q228.76 29.94 227.58 31.62L223.50 28.14Q224.84 25.74 227.84 24.08Q230.83 22.43 235.59 22.43Q241.30 22.43 244.52 25.09Q247.74 27.75 247.74 33.02L247.74 46.62L251.16 46.62L251.16 52.00L246.96 52.00ZM234.58 47.74Q237.16 47.74 238.87 46.54Q240.58 45.34 240.58 43.26L240.58 39.40L235.65 39.40Q229.77 39.40 229.77 43.10L229.77 44.22Q229.77 45.95 231.06 46.85Q232.34 47.74 234.58 47.74ZM255.08 52.00L255.08 23.10L262.25 23.10L262.25 28.20L262.53 28.20Q263.48 25.85 265.47 24.14Q267.46 22.43 270.98 22.43Q275.24 22.43 277.90 25.26Q280.56 28.09 280.56 33.35L280.56 52.00L273.39 52.00L273.39 34.36Q273.39 28.09 267.96 28.09Q266.84 28.09 265.83 28.37Q264.82 28.65 264.01 29.24Q263.20 29.82 262.72 30.66Q262.25 31.50 262.25 32.68L262.25 52.00L255.08 52.00Z"></path></svg>